<?xml version="1.0" encoding="utf-8"?>
<!-- Generator: Adobe Illustrator 18.0.0, SVG Export Plug-In . SVG Version: 6.00 Build 0)  -->
<!DOCTYPE svg PUBLIC "-//W3C//DTD SVG 1.1//EN" "http://www.w3.org/Graphics/SVG/1.1/DTD/svg11.dtd">
<svg version="1.1" id="Layer_1" xmlns="http://www.w3.org/2000/svg" xmlns:xlink="http://www.w3.org/1999/xlink" x="0px" y="0px"
	 width="749.8px" height="339.6px" viewBox="0 0 749.8 339.6" style="enable-background:new 0 0 749.8 339.6;" xml:space="preserve"
	>
<style type="text/css">
	.st0{opacity:0.2;fill:#0190BF;}
	.st1{fill:#C32032;}
	.st2{fill:#F5A71D;}
	.st3{fill:#E38525;}
	.st4{fill:#182E58;}
	.st5{fill:#003E7E;}
	.st6{fill:#FFFFFF;}
	.st7{fill:#002458;}
	.st8{fill:#0D5899;}
	.st9{fill:#333334;}
	.st10{fill:#9A9A9C;}
	.st11{opacity:0.6;fill:#6D6E71;}
	.st12{fill:#2F1A0E;}
</style>
<g>
	<path class="st0" d="M749.8,309V157c0,0-153.9-17.4-206.2,71.3c0,0-91-28.5-133.1,26.2L284,248.9c0,0-1.3-44-37.4-44
		c0,0-3.3-80-120.6-80c0,0-72.4,0-75.4,40.4c0,0-50.6-3.9-50.6,60.1V309H749.8z"/>
	<rect x="0.3" y="268.7" class="st1" width="749.5" height="6.9"/>
	<g>
		<polygon class="st2" points="158.2,268.7 43.7,268.7 43.7,212.4 98.5,161.2 158.2,212.4 		"/>
		<polygon class="st3" points="163.3,268.7 89.6,268.7 89.6,213.4 127,180.5 163.3,213.4 		"/>
		<g>
			<polygon class="st4" points="79.1,268.7 72.9,268.7 72.9,223.2 59.4,223.2 59.4,268.7 53.3,268.7 53.3,217.1 79.1,217.1 			"/>
		</g>
		<g>
			<rect x="56.7" y="222.1" class="st5" width="18.9" height="46.5"/>
		</g>
		<circle class="st6" cx="61.2" cy="246.2" r="1.4"/>
		<polygon class="st4" points="45.2,214.5 98.5,161.2 151.7,214.5 164.8,214.5 98.5,148.1 32.1,214.5 		"/>
		<polygon class="st2" points="168.5,268.7 94.8,268.7 94.8,213.4 132.2,180.5 168.5,213.4 		"/>
		<g>
			<g>
				<rect x="110.9" y="197.5" class="st4" width="41.7" height="0.6"/>
			</g>
			<g>
				<g>
					<rect x="110.9" y="198.1" class="st3" width="41.7" height="0.6"/>
				</g>
			</g>
		</g>
		<g>
			<g>
				<rect x="101.2" y="204.6" class="st4" width="56.9" height="0.6"/>
			</g>
			<g>
				<g>
					<rect x="101.2" y="205.2" class="st3" width="56.9" height="0.6"/>
				</g>
			</g>
		</g>
		<g>
			<g>
				<rect x="96.3" y="211.7" class="st4" width="68.5" height="0.6"/>
			</g>
			<g>
				<g>
					<rect x="96.3" y="212.4" class="st3" width="68.5" height="0.6"/>
				</g>
			</g>
		</g>
		<g>
			<g>
				<rect x="94.7" y="218.8" class="st4" width="74" height="0.6"/>
			</g>
			<g>
				<g>
					<rect x="94.7" y="219.5" class="st3" width="74" height="0.6"/>
				</g>
			</g>
		</g>
		<g>
			<g>
				<rect x="94.7" y="225.9" class="st4" width="74" height="0.6"/>
			</g>
			<g>
				<g>
					<rect x="94.7" y="226.6" class="st3" width="74" height="0.6"/>
				</g>
			</g>
		</g>
		<g>
			<g>
				<rect x="94.7" y="233" class="st4" width="74" height="0.6"/>
			</g>
			<g>
				<g>
					<rect x="94.7" y="233.7" class="st3" width="74" height="0.6"/>
				</g>
			</g>
		</g>
		<g>
			<g>
				<rect x="94.7" y="240.1" class="st4" width="74" height="0.6"/>
			</g>
			<g>
				<g>
					<rect x="94.7" y="240.8" class="st3" width="74" height="0.6"/>
				</g>
			</g>
		</g>
		<g>
			<g>
				<rect x="94.7" y="247.2" class="st4" width="74" height="0.6"/>
			</g>
			<g>
				<g>
					<rect x="94.7" y="247.9" class="st3" width="74" height="0.6"/>
				</g>
			</g>
		</g>
		<g>
			<g>
				<rect x="94.7" y="254.3" class="st4" width="74" height="0.6"/>
			</g>
			<g>
				<g>
					<rect x="94.7" y="255" class="st3" width="74" height="0.6"/>
				</g>
			</g>
		</g>
		<g>
			<g>
				<rect x="94.7" y="261.5" class="st4" width="74" height="0.6"/>
			</g>
			<g>
				<g>
					<rect x="94.7" y="262.1" class="st3" width="74" height="0.6"/>
				</g>
			</g>
		</g>
		<polygon class="st4" points="98.2,214.5 132.2,180.5 166.1,214.5 176.3,214.5 132.2,170.3 88,214.5 		"/>
		<g>
			<rect x="108.2" y="216.1" class="st4" width="46.9" height="41.4"/>
			<g>
				<g>
					<rect x="120" y="219.1" class="st6" width="10.7" height="10.5"/>
					<rect x="132.6" y="219.1" class="st6" width="10.7" height="10.5"/>
					<rect x="120" y="231.5" class="st6" width="10.7" height="10.5"/>
					<rect x="132.6" y="231.5" class="st6" width="10.7" height="10.5"/>
					<rect x="120" y="244" class="st6" width="10.7" height="10.5"/>
					<rect x="132.6" y="244" class="st6" width="10.7" height="10.5"/>
				</g>
				<rect x="111.4" y="219.1" class="st6" width="6.4" height="35.4"/>
				<rect x="145.5" y="219.1" class="st6" width="6.4" height="35.4"/>
			</g>
		</g>
	</g>
	<rect x="0.3" y="275.5" class="st7" width="749.5" height="64.1"/>
	<g>
		<polygon class="st1" points="431.4,137.8 380.4,115.6 385.4,126.6 318.6,126.6 318.6,149 385.4,149 380.4,160 		"/>
	</g>
	<rect x="27.6" y="299.4" class="st6" width="46.1" height="16.3"/>
	<rect x="114.4" y="299.4" class="st6" width="48.8" height="16.3"/>
	<rect x="197.1" y="299.4" class="st6" width="52.9" height="16.3"/>
	<rect x="283" y="299.4" class="st6" width="50.5" height="16.3"/>
	<rect x="378" y="299.4" class="st6" width="20.8" height="16.3"/>
	<rect x="444.9" y="299.4" class="st6" width="46.4" height="16.3"/>
	<rect x="538.3" y="299.4" class="st6" width="21.9" height="16.3"/>
	<rect x="612.4" y="299.4" class="st6" width="26" height="16.3"/>
	<rect x="696.2" y="299.4" class="st6" width="27.7" height="16.3"/>
	<path class="st2" d="M266.3,266L266.3,266C266.3,266,266.2,266,266.3,266C266.2,266,266.3,266,266.3,266z"/>
	<path class="st2" d="M300,232.2C300,232.2,300,232.2,300,232.2C300,232.2,300,232.2,300,232.2L300,232.2z"/>
	<path class="st2" d="M277.1,232.2C277.1,232.2,277.1,232.2,277.1,232.2C277.1,232.2,277.1,232.2,277.1,232.2L277.1,232.2z"/>
	<g>
		<g>
			<g>
				<path class="st2" d="M331.9,261.9L331.9,261.9C331.9,261.9,331.9,261.9,331.9,261.9C331.9,261.9,331.9,261.9,331.9,261.9z"/>
				<path class="st8" d="M476.5,230.8c-2.3-6.6-37.7-10.4-49.6-11.7c-0.4,0-0.7-0.1-1.1-0.1c-0.2,0-0.3-0.1-0.5-0.1
					c-10.9-2.1-17.5-13.7-43.4-20.8c-0.7-0.2-1.5-0.4-2.2-0.6c0.1,0,0.3,0.1,0.4,0.1c-0.8-0.7-2.5-2.1-6.8-3.6
					c-10.9-3.7-53.3-1-61.5-0.5c-5.8,0.3-8.7,2.4-10,3.2c0.2,0,0.4,0,0.6,0c-2,0.2-3.8,0.3-5.4,0.5l-0.3-0.1c0,0,0,0.1-0.1,0.1
					c-4.1,0.4-6.5,0.7-6.5,0.7c-0.4,1.7,1.1,3,1.1,3h0h0c-0.3,0.1-0.6,0.3-0.8,0.4c-0.1,0-0.2,0.1-0.3,0.1c-0.2,0.1-0.4,0.2-0.5,0.3
					c-0.1,0.1-0.2,0.1-0.3,0.2c-0.2,0.1-0.3,0.2-0.5,0.3c-0.1,0.1-0.2,0.1-0.3,0.2c-0.2,0.1-0.3,0.2-0.5,0.3
					c-0.1,0.1-0.2,0.2-0.3,0.2c-0.1,0.1-0.3,0.2-0.4,0.3c-0.1,0.1-0.2,0.2-0.3,0.2c-0.1,0.1-0.3,0.2-0.4,0.3
					c-0.1,0.1-0.2,0.2-0.3,0.3c-0.1,0.1-0.3,0.2-0.4,0.3c-0.1,0.1-0.2,0.2-0.3,0.3c-0.1,0.1-0.2,0.2-0.4,0.3
					c-0.1,0.1-0.2,0.2-0.3,0.3c-0.1,0.1-0.2,0.2-0.4,0.3c-0.1,0.1-0.2,0.2-0.3,0.3c-0.1,0.1-0.2,0.2-0.3,0.3
					c-0.1,0.1-0.2,0.2-0.3,0.3c-0.1,0.1-0.2,0.2-0.3,0.3c-0.1,0.1-0.2,0.2-0.3,0.3c-0.1,0.1-0.2,0.2-0.3,0.3
					c-0.1,0.1-0.2,0.2-0.3,0.3c-0.1,0.1-0.2,0.2-0.3,0.3c-0.1,0.1-0.2,0.2-0.3,0.3c-0.1,0.1-0.2,0.2-0.3,0.3
					c-0.1,0.1-0.2,0.2-0.3,0.3c-0.1,0.1-0.2,0.2-0.3,0.3c-0.1,0.1-0.2,0.2-0.2,0.3c-0.1,0.1-0.2,0.2-0.3,0.3
					c-0.1,0.1-0.2,0.2-0.2,0.3c-0.1,0.1-0.2,0.2-0.2,0.3c-0.1,0.1-0.2,0.2-0.2,0.3c-0.1,0.1-0.2,0.2-0.2,0.3
					c-0.1,0.1-0.1,0.2-0.2,0.3c-0.1,0.1-0.1,0.2-0.2,0.3c-0.1,0.1-0.1,0.2-0.2,0.3c-0.1,0.1-0.1,0.2-0.2,0.2
					c-0.1,0.1-0.1,0.2-0.2,0.3c-0.1,0.1-0.1,0.1-0.2,0.2c-0.1,0.1-0.1,0.2-0.2,0.3c0,0.1-0.1,0.1-0.1,0.2c-0.1,0.1-0.1,0.2-0.2,0.3
					c0,0.1-0.1,0.1-0.1,0.2c-0.1,0.1-0.1,0.2-0.2,0.3c0,0-0.1,0.1-0.1,0.1c-0.1,0.1-0.1,0.2-0.2,0.3c0,0,0,0.1-0.1,0.1
					c-0.1,0.1-0.1,0.2-0.2,0.3c0,0,0,0,0,0c-0.1,0.1-0.1,0.2-0.2,0.3c0,0,0,0,0,0c-0.3,0.5-0.5,0.8-0.5,0.8
					c-0.1,0.1-0.2,0.1-0.3,0.2c0,0-0.1,0.1-0.1,0.1c-0.1,0.1-0.2,0.1-0.3,0.2c-0.1,0.1-0.2,0.2-0.3,0.2c-0.1,0.1-0.2,0.1-0.2,0.2
					c-0.1,0.1-0.2,0.2-0.3,0.3c-0.1,0.1-0.1,0.1-0.2,0.2c-0.1,0.1-0.2,0.2-0.3,0.3c-0.1,0.1-0.1,0.1-0.2,0.2
					c-0.1,0.2-0.3,0.3-0.4,0.5c0,0.1-0.1,0.1-0.1,0.2c-0.1,0.1-0.2,0.3-0.2,0.4c0,0.1-0.1,0.2-0.1,0.2c-0.1,0.1-0.1,0.2-0.2,0.3
					c0,0.1-0.1,0.2-0.1,0.3c-0.1,0.1-0.1,0.2-0.2,0.3c0,0.1-0.1,0.2-0.1,0.3c-0.1,0.1-0.1,0.2-0.1,0.3c0,0.1-0.1,0.2-0.1,0.3
					c0,0.1-0.1,0.2-0.1,0.4c0,0.1-0.1,0.2-0.1,0.3c0,0.1-0.1,0.3-0.1,0.4c0,0.1,0,0.2-0.1,0.2c0,0.1-0.1,0.3-0.1,0.4
					c0,0.1,0,0.1,0,0.2c0,0.2-0.1,0.4-0.1,0.6c0,0,0,0.1,0,0.1c0,0.2-0.1,0.3-0.1,0.5c0,0.1,0,0.1,0,0.2c0,0.1,0,0.3-0.1,0.4
					c0,0.1,0,0.2,0,0.2c0,0,0,0.1,0,0.1l0,0c0,0,0,0,0,0c0,0.1,0,0.2,0,0.2c0,0.1,0,0.2,0,0.2c0,0.1,0,0.2,0,0.4c0,0.1,0,0.2,0,0.2
					c0,0.1,0,0.2,0,0.4c0,0.1,0,0.1,0,0.2c0,0.1,0,0.2,0,0.4c0,0.1,0,0.1,0,0.2c0,0.1,0,0.3,0,0.4c0,0,0,0.1,0,0.1
					c0,0.2,0,0.3,0,0.5c0,0,0,0,0,0.1c0,0.2,0,0.3,0,0.4c0,0,0,0.1,0,0.1c0,0.1,0,0.2,0,0.3c0,0,0,0,0,0c0,0,0,0.1,0,0.1
					c0,0,0,0.1,0,0.1c0,0,0,0.1,0,0.1c0,0,0,0,0,0c0,0,0,0,0,0.1c0,0,0,0.1,0,0.1c0,0.1,0,0.2,0,0.3c0,0,0,0.1,0,0.1
					c0,0.1,0,0.2,0,0.3c0,0,0,0,0,0.1c0,0.1,0,0.2,0,0.3c0,0,0,0,0,0c0,0.2,0,0.3,0.1,0.5c0,0.2,0,0.3,0,0.3c0,0.1-0.1,0.2-0.1,0.2
					c0,0,0,0,0,0c-3,5.1-2.7,10.9-1.6,15.4c0,0,0,0.1,0,0.1c0.1,0.3,0.1,0.5,0.2,0.8c0,0.1,0,0.1,0,0.2c0.1,0.2,0.1,0.5,0.2,0.7
					c0,0.1,0,0.1,0.1,0.2c0.1,0.2,0.1,0.4,0.2,0.6c0,0.1,0,0.1,0.1,0.2c0.1,0.2,0.1,0.4,0.2,0.6c0,0,0,0.1,0,0.1
					c0.1,0.2,0.2,0.5,0.2,0.7c0,0,0,0,0,0c0.3,0.7,0.5,1.3,0.7,1.8c0,0,0,0,0,0.1c0.1,0.1,0.1,0.3,0.2,0.4c0,0,0,0.1,0.1,0.1
					c0,0.1,0.1,0.2,0.1,0.3c0,0,0,0.1,0,0.1c0,0.1,0.1,0.2,0.1,0.2c0,0,0,0.1,0,0.1c0,0.1,0.1,0.1,0.1,0.2c0,0,0,0,0,0.1
					c0,0,0,0.1,0.1,0.1c0,0,0,0,0,0c0,0,0,0,0,0l14.3,3.8c1.1,3.3,2.5,3.7,3.5,3.4c-0.6-1.9-1-4-1-6.2c0-11.2,9-20.2,20.2-20.2
					c8.3,0,15.5,5,18.6,12.2c1.5,3.1,3.1,7.8,3.5,13.9c5-0.6,87-0.4,87.9-0.4c0.3-4.6,1-7.7,1.7-9.6c2.5-8.6,11-15,20.3-15
					c11.2,0,20.2,9,20.2,20.2l0.2,6.3c13.2-0.3,16.7-6.5,17.7-9.2h0.2v-0.6c0.1-0.4,0.1-0.7,0.1-0.7c0-0.1,0-0.2,0-0.3c0,0,0,0,0,0
					C482,239.3,478.8,237.4,476.5,230.8z M333,194.8l0.3-1.2c0,0,22.2-0.3,28.7,0.1c4,0.2,5.7,1.2,6.5,2c0.6,0.1,1.1,0.1,1.7,0.2
					c-11.1-1.3-24.7-1.4-37.5-1C332.8,194.8,332.9,194.8,333,194.8z M311.4,195.9c0.3-0.5,1.2-1.1,3.9-1.2l14.6-1l-0.6,1.3
					c0,0,0.1,0,0.1,0c-6.5,0.2-12.7,0.6-18.2,1C311.3,195.9,311.3,195.9,311.4,195.9z M296.5,215.9l-2.3-4.1c0,0,3.4-11.3,34.9-12.9
					c21.6-1.1,36.8-1.7,50.3,2.2c-0.4,0-0.7,0-1.1,0.1c-0.9,0.1-1.4,0.6-2.2,1.1c-0.5,0.3-1.2,0.5-1.7,1c-0.1,0.2-0.3,0.3-0.4,0.5
					c-0.8,0.2-1.1,1.6-1.3,2.2c-0.3,1.1-0.3,2.5,0.1,3.6c0.2,0.6,0.6,1.1,0.8,1.7c0.2,0.5,0.4,1,0.8,1.3c0.7,0.6,1.3,1.3,2.1,1.6
					c0.2,0.1,0.5,0.2,0.6,0.3c0.1,0.1,0.2,0.4,0.3,0.5c0,0,0,0,0,0c0,0.4-0.1,0.8-0.1,1.1c0,0.3,0,0.7-0.1,1.1
					c-0.2-0.1-0.5-0.1-0.7-0.2c0,0.3-0.3,0.7-0.3,1.1c-0.1,0.5-0.4,1-0.6,1.5c-1-0.1-2-0.1-3.1-0.2c-0.2-2.8-0.4-5.8-0.7-8.4
					c-0.8-6.4-4.5-5.3-4.5-5.3c-0.5,0.1-2.6,1-2.1,3.5c0.2,1.2,0.6,5.6,0.9,9.7c-4.7-0.3-9.5-0.5-14.4-0.8c-0.1-0.2-0.2-0.4-0.4-0.5
					c-0.2-0.1-0.6,0-0.8,0c0.1-0.2,0.1-0.4,0.1-0.8c0.2-1.7,0.9-2.1,3.2-2.6c1-1.6,0.4-5.1,2.7-5.2c-0.3-1.2-1.4-1.3-2.1-2.2
					c-0.5-0.6-0.8-1.3-1.1-2c0-0.3,0-0.5,0.1-0.8c0.1-0.3,0.5-0.6,0.6-0.9c0.1-0.8-0.6-1.2-1.3-1.4c-1.5-0.5-3.1-1-4.8-0.8
					c-0.9,0.1-1.4,0.6-2.2,1.1c-0.5,0.3-1.2,0.5-1.7,1c-0.1,0.2-0.3,0.3-0.4,0.5c-0.8,0.2-1.1,1.6-1.3,2.2c-0.3,1.1-0.3,2.5,0.1,3.6
					c0.2,0.6,0.6,1.1,0.8,1.7c0.2,0.5,0.4,1,0.8,1.3c0.7,0.6,1.3,1.3,2.1,1.6c0.2,0.1,0.5,0.2,0.6,0.3c0.1,0.1,0.2,0.4,0.3,0.5
					c0,0,0,0,0,0c0,0.4-0.1,0.8-0.1,1.1c0,0.3,0,0.7-0.1,1.1c-0.2-0.1-0.5-0.1-0.7-0.2c0,0.3-0.2,0.6-0.3,0.9
					c-1.3-0.1-2.6-0.1-3.9-0.2c-0.1-2.3-0.3-4.6-0.6-6.7c-0.8-6.4-4.5-5.3-4.5-5.3c-0.5,0.1-2.6,1-2.1,3.5c0.2,1.1,0.5,4.5,0.8,8
					C314.8,216.2,297.3,215.4,296.5,215.9z M383.1,220c-0.1-0.2-0.3-0.5-0.4-0.7c-0.1-0.7-0.3-1.5-0.7-1.6c-0.2-0.1-0.6,0-0.8,0
					c0.1-0.2,0.1-0.4,0.1-0.8c0.2-1.7,0.9-2.1,3.2-2.6c1-1.6,0.4-5.1,2.7-5.2c-0.3-1.2-1.4-1.3-2.1-2.2c-0.5-0.6-0.8-1.3-1.1-2
					c0-0.3,0-0.5,0.1-0.8c0.1-0.3,0.5-0.6,0.6-0.9c0-0.3,0-0.5-0.2-0.7c4.5,1.7,9,4,13.5,7c0,0,5.7,2.8,9.6,6.4
					c-1.9,1.1-4.4,2.9-5.6,5.1c-0.3,0-0.5,0-0.8,0l1.7-5.6c0.2-0.6-0.1-1.3-0.8-1.4c-0.6-0.2-1.3,0.2-1.4,0.8l-1.9,6.2
					C394.3,220.7,389,220.3,383.1,220z"/>
				<path class="st5" d="M479.8,254.2h0.2v-0.6c0.1-0.4,0.1-0.7,0.1-0.7c0-0.1,0-0.2,0-0.3c0,0,0,0,0,0c0.6-4.1,0.6-7.1,0.4-9.5
					c-5.5,3.9-14.4,4.9-20.8,5c1.3,2.7,2.1,5.7,2.1,8.9l0.2,6.3C475.4,263.1,478.9,256.9,479.8,254.2z"/>
				<path class="st5" d="M325.3,243c1.3,1.5,2.3,3.2,3.1,5c1.5,3.1,3.1,7.8,3.5,13.9c5-0.6,87-0.4,87.9-0.4c0.3-4.6,1-7.7,1.7-9.6
					c1-3.4,2.9-6.4,5.5-8.9H325.3z"/>
				<path class="st5" d="M308.2,235.9c-2.6-1.9-7.5-1.3-14.4-11.5c-7.3-10.8-2.8-20.5,3-27.3l-0.2-0.1c0,0,0,0.1-0.1,0.1
					c-4.1,0.4-6.5,0.7-6.5,0.7c-0.4,1.7,1.1,3,1.1,3h0c-0.3,0.1-0.6,0.3-0.8,0.4c-0.1,0-0.2,0.1-0.3,0.1c-0.2,0.1-0.4,0.2-0.5,0.3
					c-0.1,0.1-0.2,0.1-0.3,0.2c-0.2,0.1-0.3,0.2-0.5,0.3c-0.1,0.1-0.2,0.1-0.3,0.2c-0.2,0.1-0.3,0.2-0.5,0.3
					c-0.1,0.1-0.2,0.2-0.3,0.2c-0.1,0.1-0.3,0.2-0.4,0.3c-0.1,0.1-0.2,0.2-0.3,0.2c-0.1,0.1-0.3,0.2-0.4,0.3
					c-0.1,0.1-0.2,0.2-0.3,0.3c-0.1,0.1-0.3,0.2-0.4,0.3c-0.1,0.1-0.2,0.2-0.3,0.3c-0.1,0.1-0.2,0.2-0.4,0.3
					c-0.1,0.1-0.2,0.2-0.3,0.3c-0.1,0.1-0.2,0.2-0.4,0.3c-0.1,0.1-0.2,0.2-0.3,0.3c-0.1,0.1-0.2,0.2-0.3,0.3
					c-0.1,0.1-0.2,0.2-0.3,0.3c-0.1,0.1-0.2,0.2-0.3,0.3c-0.1,0.1-0.2,0.2-0.3,0.3c-0.1,0.1-0.2,0.2-0.3,0.3
					c-0.1,0.1-0.2,0.2-0.3,0.3c-0.1,0.1-0.2,0.2-0.3,0.3c-0.1,0.1-0.2,0.2-0.3,0.3c-0.1,0.1-0.2,0.2-0.3,0.3
					c-0.1,0.1-0.2,0.2-0.3,0.3c-0.1,0.1-0.2,0.2-0.3,0.3c-0.1,0.1-0.2,0.2-0.2,0.3c-0.1,0.1-0.2,0.2-0.3,0.3
					c-0.1,0.1-0.2,0.2-0.2,0.3c-0.1,0.1-0.2,0.2-0.2,0.3c-0.1,0.1-0.2,0.2-0.2,0.3c-0.1,0.1-0.2,0.2-0.2,0.3
					c-0.1,0.1-0.1,0.2-0.2,0.3c-0.1,0.1-0.1,0.2-0.2,0.3c-0.1,0.1-0.1,0.2-0.2,0.3c-0.1,0.1-0.1,0.2-0.2,0.2
					c-0.1,0.1-0.1,0.2-0.2,0.3c-0.1,0.1-0.1,0.1-0.2,0.2c-0.1,0.1-0.1,0.2-0.2,0.3c0,0.1-0.1,0.1-0.1,0.2c-0.1,0.1-0.1,0.2-0.2,0.3
					c0,0.1-0.1,0.1-0.1,0.2c-0.1,0.1-0.1,0.2-0.2,0.3c0,0-0.1,0.1-0.1,0.1c-0.1,0.1-0.1,0.2-0.2,0.3c0,0,0,0.1-0.1,0.1
					c-0.1,0.1-0.1,0.2-0.2,0.3c0,0,0,0,0,0c-0.1,0.1-0.1,0.2-0.2,0.3c0,0,0,0,0,0c-0.3,0.5-0.5,0.8-0.5,0.8
					c-0.1,0.1-0.2,0.1-0.3,0.2c0,0-0.1,0.1-0.1,0.1c-0.1,0.1-0.2,0.1-0.3,0.2c-0.1,0.1-0.2,0.2-0.3,0.2c-0.1,0.1-0.2,0.1-0.2,0.2
					c-0.1,0.1-0.2,0.2-0.3,0.3c-0.1,0.1-0.1,0.1-0.2,0.2c-0.1,0.1-0.2,0.2-0.3,0.3c-0.1,0.1-0.1,0.1-0.2,0.2
					c-0.1,0.2-0.3,0.3-0.4,0.5c0,0.1-0.1,0.1-0.1,0.2c-0.1,0.1-0.2,0.3-0.2,0.4c0,0.1-0.1,0.2-0.1,0.2c-0.1,0.1-0.1,0.2-0.2,0.3
					c0,0.1-0.1,0.2-0.1,0.3c-0.1,0.1-0.1,0.2-0.2,0.3c0,0.1-0.1,0.2-0.1,0.3c-0.1,0.1-0.1,0.2-0.1,0.3c0,0.1-0.1,0.2-0.1,0.3
					c0,0.1-0.1,0.2-0.1,0.4c0,0.1-0.1,0.2-0.1,0.3c0,0.1-0.1,0.3-0.1,0.4c0,0.1,0,0.2-0.1,0.2c0,0.1-0.1,0.3-0.1,0.4
					c0,0.1,0,0.1,0,0.2c0,0.2-0.1,0.4-0.1,0.6c0,0,0,0.1,0,0.1c0,0.2-0.1,0.3-0.1,0.5c0,0.1,0,0.1,0,0.2c0,0.1,0,0.3-0.1,0.4
					c0,0.1,0,0.2,0,0.2c0,0,0,0.1,0,0.1c0,0,0,0,0,0c0,0.1,0,0.2,0,0.2c0,0.1,0,0.2,0,0.2c0,0.1,0,0.2,0,0.4c0,0.1,0,0.2,0,0.2
					c0,0.1,0,0.2,0,0.4c0,0.1,0,0.1,0,0.2c0,0.1,0,0.2,0,0.4c0,0.1,0,0.1,0,0.2c0,0.1,0,0.3,0,0.4c0,0,0,0.1,0,0.1
					c0,0.2,0,0.3,0,0.5c0,0,0,0,0,0.1c0,0.2,0,0.3,0,0.4c0,0,0,0.1,0,0.1c0,0.1,0,0.2,0,0.3c0,0,0,0,0,0c0,0,0,0.1,0,0.1
					c0,0,0,0.1,0,0.1c0,0,0,0.1,0,0.1c0,0,0,0,0,0c0,0,0,0,0,0.1c0,0,0,0.1,0,0.1c0,0.1,0,0.2,0,0.3c0,0,0,0.1,0,0.1
					c0,0.1,0,0.2,0,0.3c0,0,0,0,0,0.1c0,0.1,0,0.2,0,0.3c0,0,0,0,0,0c0,0.2,0,0.3,0.1,0.5c0,0.2,0,0.3,0,0.3c0,0.1-0.1,0.2-0.1,0.2
					c0,0,0,0,0,0c-3,5.1-2.7,10.9-1.6,15.4c0,0,0,0.1,0,0.1c0.1,0.3,0.1,0.5,0.2,0.8c0,0.1,0,0.1,0,0.2c0.1,0.2,0.1,0.5,0.2,0.7
					c0,0.1,0,0.1,0.1,0.2c0.1,0.2,0.1,0.4,0.2,0.6c0,0.1,0,0.1,0.1,0.2c0.1,0.2,0.1,0.4,0.2,0.6c0,0,0,0.1,0,0.1
					c0.1,0.2,0.2,0.5,0.2,0.7c0,0,0,0,0,0c0.3,0.7,0.5,1.3,0.7,1.8c0,0,0,0,0,0.1c0.1,0.1,0.1,0.3,0.2,0.4c0,0,0,0.1,0.1,0.1
					c0,0.1,0.1,0.2,0.1,0.3c0,0,0,0.1,0,0.1c0,0.1,0.1,0.2,0.1,0.2c0,0,0,0.1,0,0.1c0,0.1,0.1,0.1,0.1,0.2c0,0,0,0,0,0.1
					c0,0,0,0.1,0.1,0.1c0,0,0,0,0,0c0,0,0,0,0,0l14.3,3.8c1.1,3.3,2.5,3.7,3.5,3.4c-0.6-1.9-1-4-1-6.2
					C289.7,245.4,297.8,236.7,308.2,235.9z"/>
				<g>
					<path class="st1" d="M279.6,216.2c-1.4,0-2.9,0-3.9,0c-5.6,4.2-4.5,13.5-4.2,15.2l0,0c2.3-1.3,5.3-4,8.4-7.5
						c1.5-1.6,2.8-3.3,3.9-4.7c1.4-1.9,1.4-2.4,1.4-2.5C285.1,216.6,284.5,216.2,279.6,216.2z"/>
				</g>
				<path class="st9" d="M333.4,217.3l68.3,3.9c-0.3,0-0.5,0-0.8,0l1.7-5.6c0.2-0.6-0.1-1.3-0.8-1.4c-0.6-0.2-1.3,0.2-1.4,0.8
					l-1.9,6.2c-4.4-0.3-9.7-0.6-15.6-0.9c-0.1-0.2-0.3-0.5-0.4-0.7c-0.1-0.7-0.3-1.5-0.7-1.6c-0.2-0.1-0.6,0-0.8,0
					c0.1-0.2,0.1-0.4,0.1-0.8c0.2-1.7,0.9-2.1,3.2-2.6c1-1.6,0.4-5.1,2.7-5.2c-0.3-1.2-1.4-1.3-2.1-2.2c-0.5-0.6-0.8-1.3-1.1-2
					c0-0.3,0-0.5,0.1-0.8c0.1-0.3,0.5-0.6,0.6-0.9c0-0.3,0-0.5-0.2-0.7c0.2,0.1,0.5,0.2,0.7,0.3c-2.4-1.1-5.1-1.9-8-2.5
					c0.8,0.2,1.7,0.4,2.5,0.7c-0.4,0-0.7,0-1.1,0.1c-0.9,0.1-1.4,0.6-2.2,1.1c-0.5,0.3-1.2,0.5-1.7,1c-0.1,0.2-0.3,0.3-0.4,0.5
					c-0.8,0.2-1.1,1.6-1.3,2.2c-0.3,1.1-0.3,2.5,0.1,3.6c0.2,0.6,0.6,1.1,0.8,1.7c0.2,0.5,0.4,1,0.8,1.3c0.7,0.6,1.3,1.3,2.1,1.6
					c0.2,0.1,0.5,0.2,0.6,0.3c0.1,0.1,0.2,0.4,0.3,0.5c0,0,0,0,0,0c0,0.4-0.1,0.8-0.1,1.1c0,0.3,0,0.7-0.1,1.1
					c-0.2-0.1-0.5-0.1-0.7-0.2c0,0.3-0.3,0.7-0.3,1.1c-0.1,0.5-0.4,1-0.6,1.5c-1-0.1-2-0.1-3.1-0.2c-0.2-2.8-0.4-5.8-0.7-8.4
					c-0.8-6.4-4.5-5.3-4.5-5.3c-0.5,0.1-2.6,1-2.1,3.5c0.2,1.2,0.6,5.6,0.9,9.7c-4.7-0.3-9.5-0.5-14.4-0.8c-0.1-0.2-0.2-0.4-0.4-0.5
					c-0.2-0.1-0.6,0-0.8,0c0.1-0.2,0.1-0.4,0.1-0.8c0.2-1.7,0.9-2.1,3.2-2.6c1-1.6,0.4-5.1,2.7-5.2c-0.3-1.2-1.4-1.3-2.1-2.2
					c-0.5-0.6-0.8-1.3-1.1-2c0-0.3,0-0.5,0.1-0.8c0.1-0.3,0.5-0.6,0.6-0.9c0.1-0.8-0.6-1.2-1.3-1.4c-1.5-0.5-3.1-1-4.8-0.8
					c-0.9,0.1-1.4,0.6-2.2,1.1c-0.5,0.3-1.2,0.5-1.7,1c-0.1,0.2-0.3,0.3-0.4,0.5c-0.8,0.2-1.1,1.6-1.3,2.2c-0.3,1.1-0.3,2.5,0.1,3.6
					c0.2,0.6,0.6,1.1,0.8,1.7c0.2,0.5,0.4,1,0.8,1.3c0.7,0.6,1.3,1.3,2.1,1.6c0.2,0.1,0.5,0.2,0.6,0.3c0.1,0.1,0.2,0.4,0.3,0.5
					c0,0,0,0,0,0c0,0.4-0.1,0.8-0.1,1.1c0,0.3,0,0.7-0.1,1.1c-0.2-0.1-0.5-0.1-0.7-0.2c0,0.3-0.2,0.6-0.3,0.9
					c-1.3-0.1-2.6-0.1-3.9-0.2c-0.1-2.3-0.3-4.6-0.6-6.7c-0.8-6.4-4.5-5.3-4.5-5.3c-0.5,0.1-2.6,1-2.1,3.5c0.2,1.1,0.5,4.5,0.8,8
					C335,217.3,334.2,217.2,333.4,217.3L333.4,217.3z"/>
				<g>
					<path class="st2" d="M476.5,237.3c0,0-0.4-5.1-3.1-6.5c0,0-9.4-3-12.6-1.4c-3.3,1.6,2.7,6.9,2.7,6.9L476.5,237.3z"/>
				</g>
				<path class="st2" d="M376.7,217C376.7,217,376.7,217,376.7,217C376.7,217,376.7,217,376.7,217L376.7,217z"/>
				<path class="st2" d="M346.3,217C346.3,217,346.3,217,346.3,217C346.3,217,346.3,217,346.3,217L346.3,217z"/>
			</g>
			<g>
				<path class="st6" d="M440.6,246c-6.6,0-12,5.4-12,12c0,6.6,5.4,12,12,12c6.6,0,12-5.4,12-12C452.6,251.4,447.2,246,440.6,246z"
					/>
				<path class="st10" d="M440.6,246c-6.6,0-12,5.4-12,12c0,6.6,5.4,12,12,12c6.6,0,12-5.4,12-12C452.6,251.4,447.2,246,440.6,246z
					 M430.6,258.4c0-0.1,0-0.2,0-0.3c0-2.3,0.8-4.4,2.1-6.1c2.3,1.2,4.7,2.9,6,5.5C436.1,258.8,433.1,258.8,430.6,258.4z
					 M437.9,267.7c-2.3-0.6-4.2-2.1-5.5-4c1.8-1.8,4.2-3.6,7.1-4C439.9,262.5,439,265.4,437.9,267.7z M437.2,248.7
					c1.1-0.4,2.2-0.6,3.4-0.6c1.2,0,2.3,0.2,3.4,0.6c-0.4,2.5-1.3,5.3-3.4,7.4C438.5,254,437.6,251.2,437.2,248.7z M443.4,267.6
					c-1.1-2.3-2.1-5.1-1.6-8c2.9,0.5,5.3,2.2,7.1,4C447.6,265.5,445.7,267,443.4,267.6z M442.5,257.4c1.3-2.6,3.7-4.3,5.9-5.5
					c1.3,1.7,2.1,3.8,2.1,6.2c0,0.1,0,0.2,0,0.3C448.1,258.7,445.1,258.7,442.5,257.4z"/>
				<g>
					<path class="st9" d="M440.6,240.6c-9.6,0-17.5,7.8-17.5,17.5c0,9.7,7.8,17.5,17.5,17.5c9.6,0,17.5-7.8,17.5-17.5
						C458.1,248.4,450.2,240.6,440.6,240.6z M440.6,270.1c-6.6,0-12-5.4-12-12c0-6.6,5.4-12,12-12c6.6,0,12,5.4,12,12
						C452.6,264.7,447.2,270.1,440.6,270.1z"/>
				</g>
			</g>
			<g>
				<path class="st6" d="M310.2,246c-6.6,0-12,5.4-12,12c0,6.6,5.4,12,12,12c6.6,0,12-5.4,12-12C322.2,251.4,316.8,246,310.2,246z"
					/>
				<path class="st10" d="M310.2,246c-6.6,0-12,5.4-12,12c0,6.6,5.4,12,12,12c6.6,0,12-5.4,12-12C322.2,251.4,316.8,246,310.2,246z
					 M300.2,258.4c0-0.1,0-0.2,0-0.3c0-2.3,0.8-4.4,2.1-6.1c2.3,1.2,4.7,2.9,6,5.5C305.7,258.8,302.7,258.8,300.2,258.4z
					 M307.5,267.7c-2.3-0.6-4.2-2.1-5.5-4c1.8-1.8,4.2-3.6,7.1-4C309.5,262.5,308.6,265.4,307.5,267.7z M306.8,248.7
					c1.1-0.4,2.2-0.6,3.4-0.6c1.2,0,2.3,0.2,3.4,0.6c-0.4,2.5-1.3,5.3-3.4,7.4C308.2,254,307.2,251.2,306.8,248.7z M313,267.6
					c-1.1-2.3-2.1-5.1-1.6-8c2.9,0.5,5.3,2.2,7.1,4C317.2,265.5,315.3,267,313,267.6z M312.1,257.4c1.3-2.6,3.7-4.3,5.9-5.5
					c1.3,1.7,2.1,3.8,2.1,6.2c0,0.1,0,0.2,0,0.3C317.7,258.7,314.7,258.7,312.1,257.4z"/>
				<g>
					<path class="st9" d="M310.2,240.6c-9.7,0-17.5,7.8-17.5,17.5c0,9.7,7.8,17.5,17.5,17.5c9.6,0,17.5-7.8,17.5-17.5
						C327.7,248.4,319.9,240.6,310.2,240.6z M310.2,270.1c-6.6,0-12-5.4-12-12c0-6.6,5.4-12,12-12c6.6,0,12,5.4,12,12
						C322.2,264.7,316.8,270.1,310.2,270.1z"/>
				</g>
			</g>
		</g>
	</g>
	<g>
		<g>
			<rect x="689.4" class="st6" width="2.6" height="36.6"/>
			<polygon class="st2" points="700.9,45.3 700.9,37.7 700.9,34 695,34 689.1,34 683.1,34 683.1,37.7 683.1,45.3 678.4,45.3 
				678.4,62.6 705.6,62.6 705.6,45.3 			"/>
			<polyline class="st5" points="705.6,62.6 705.6,62.6 705.6,62.6 			"/>
			<g>
				<polyline class="st5" points="668.1,268.7 657.6,268.7 657.6,125.7 665.3,125.7 665.3,108.5 674,108.5 674,62.6 678.4,62.6 
					705.6,62.6 710,62.6 710,108.5 718.7,108.5 718.7,125.7 726.4,125.7 726.4,268.7 715.9,268.7 				"/>
				<line class="st11" x1="705.2" y1="268.7" x2="710.7" y2="268.7"/>
				<line class="st11" x1="694.6" y1="268.7" x2="700.1" y2="268.7"/>
				<line class="st11" x1="683.9" y1="268.7" x2="689.4" y2="268.7"/>
				<line class="st11" x1="673.3" y1="268.7" x2="678.8" y2="268.7"/>
				<polyline class="st6" points="710.7,268.7 710.7,144.3 715.9,144.3 715.9,268.7 				"/>
				<polyline class="st6" points="700.1,268.7 700.1,144.3 705.2,144.3 705.2,268.7 				"/>
				<polyline class="st6" points="689.4,268.7 689.4,144.3 694.6,144.3 694.6,268.7 				"/>
				<polyline class="st6" points="678.8,268.7 678.8,144.3 683.9,144.3 683.9,268.7 				"/>
				<polyline class="st6" points="668.1,268.7 668.1,144.3 673.3,144.3 673.3,268.7 				"/>
				<rect x="700.8" y="74.2" class="st6" width="2.4" height="34.3"/>
				<rect x="695.8" y="74.2" class="st6" width="2.4" height="34.3"/>
				<rect x="690.8" y="74.2" class="st6" width="2.4" height="34.3"/>
				<rect x="685.8" y="74.2" class="st6" width="2.4" height="34.3"/>
				<rect x="680.7" y="74.2" class="st6" width="2.4" height="34.3"/>
			</g>
			<rect x="665.3" y="120.5" class="st11" width="53.5" height="5.2"/>
			<rect x="674" y="103.3" class="st11" width="36" height="5.2"/>
			<rect x="678.4" y="57.4" class="st3" width="27.3" height="5.2"/>
			<rect x="683.1" y="40.1" class="st3" width="17.8" height="5.2"/>
		</g>
		<g>
			<g>
				<polyline class="st5" points="630.4,109.9 635.4,109.9 635.4,114.2 639.7,114.2 639.7,190.4 645.5,190.4 645.5,268.7 
					588.3,268.7 588.3,190.4 594.1,190.4 594.1,129.6 605,129.6 605,114.2 608.7,114.2 608.7,109.9 616.6,109.9 				"/>
				<rect x="634.2" y="253.3" class="st6" width="2.8" height="6.7"/>
				<rect x="634.2" y="243" class="st6" width="2.8" height="6.7"/>
				<rect x="634.2" y="232.8" class="st6" width="2.8" height="6.7"/>
				<rect x="634.2" y="222.5" class="st6" width="2.8" height="6.7"/>
				<rect x="634.2" y="212.2" class="st6" width="2.8" height="6.7"/>
				<rect x="634.2" y="201.9" class="st6" width="2.8" height="6.7"/>
				<rect x="628.8" y="253.3" class="st6" width="2.8" height="6.7"/>
				<rect x="628.8" y="243" class="st6" width="2.8" height="6.7"/>
				<rect x="628.8" y="232.8" class="st6" width="2.8" height="6.7"/>
				<rect x="628.8" y="222.5" class="st6" width="2.8" height="6.7"/>
				<rect x="628.8" y="212.2" class="st6" width="2.8" height="6.7"/>
				<rect x="628.8" y="201.9" class="st6" width="2.8" height="6.7"/>
				<rect x="623.5" y="253.3" class="st6" width="2.8" height="6.7"/>
				<rect x="623.5" y="243" class="st6" width="2.8" height="6.7"/>
				<rect x="623.5" y="232.8" class="st6" width="2.8" height="6.7"/>
				<rect x="623.5" y="222.5" class="st6" width="2.8" height="6.7"/>
				<rect x="623.5" y="212.2" class="st6" width="2.8" height="6.7"/>
				<rect x="623.5" y="201.9" class="st6" width="2.8" height="6.7"/>
				<rect x="618.2" y="253.3" class="st6" width="2.8" height="6.7"/>
				<rect x="618.2" y="243" class="st6" width="2.8" height="6.7"/>
				<rect x="618.2" y="232.8" class="st6" width="2.8" height="6.7"/>
				<rect x="618.2" y="222.5" class="st6" width="2.8" height="6.7"/>
				<rect x="618.2" y="212.2" class="st6" width="2.8" height="6.7"/>
				<rect x="618.2" y="201.9" class="st6" width="2.8" height="6.7"/>
				<rect x="612.8" y="253.3" class="st6" width="2.8" height="6.7"/>
				<rect x="612.8" y="243" class="st6" width="2.8" height="6.7"/>
				<rect x="612.8" y="232.8" class="st6" width="2.8" height="6.7"/>
				<rect x="612.8" y="222.5" class="st6" width="2.8" height="6.7"/>
				<rect x="612.8" y="212.2" class="st6" width="2.8" height="6.7"/>
				<rect x="612.8" y="201.9" class="st6" width="2.8" height="6.7"/>
				<rect x="607.5" y="253.3" class="st6" width="2.8" height="6.7"/>
				<rect x="607.5" y="243" class="st6" width="2.8" height="6.7"/>
				<rect x="607.5" y="232.8" class="st6" width="2.8" height="6.7"/>
				<rect x="607.5" y="222.5" class="st6" width="2.8" height="6.7"/>
				<rect x="607.5" y="212.2" class="st6" width="2.8" height="6.7"/>
				<rect x="607.5" y="201.9" class="st6" width="2.8" height="6.7"/>
				<rect x="602.2" y="253.3" class="st6" width="2.8" height="6.7"/>
				<rect x="602.2" y="243" class="st6" width="2.8" height="6.7"/>
				<rect x="602.2" y="232.8" class="st6" width="2.8" height="6.7"/>
				<rect x="602.2" y="222.5" class="st6" width="2.8" height="6.7"/>
				<rect x="602.2" y="212.2" class="st6" width="2.8" height="6.7"/>
				<rect x="602.2" y="201.9" class="st6" width="2.8" height="6.7"/>
				<rect x="596.8" y="253.3" class="st6" width="2.8" height="6.7"/>
				<rect x="596.8" y="243" class="st6" width="2.8" height="6.7"/>
				<rect x="596.8" y="232.8" class="st6" width="2.8" height="6.7"/>
				<rect x="596.8" y="222.5" class="st6" width="2.8" height="6.7"/>
				<rect x="596.8" y="212.2" class="st6" width="2.8" height="6.7"/>
				<rect x="596.8" y="201.9" class="st6" width="2.8" height="6.7"/>
			</g>
			<rect x="594.1" y="185.2" class="st11" width="45.6" height="5.2"/>
			<rect x="605" y="124.1" class="st11" width="34.7" height="5.2"/>
			<rect x="608.7" y="109.9" class="st3" width="26.8" height="4.3"/>
			<g>
				<rect x="626.2" y="170.1" class="st6" width="2.8" height="6.7"/>
				<rect x="626.2" y="159.8" class="st6" width="2.8" height="6.7"/>
				<rect x="626.2" y="149.5" class="st6" width="2.8" height="6.7"/>
				<rect x="626.2" y="139.2" class="st6" width="2.8" height="6.7"/>
				<rect x="620.8" y="170.1" class="st6" width="2.8" height="6.7"/>
				<rect x="620.8" y="159.8" class="st6" width="2.8" height="6.7"/>
				<rect x="620.8" y="149.5" class="st6" width="2.8" height="6.7"/>
				<rect x="620.8" y="139.2" class="st6" width="2.8" height="6.7"/>
				<rect x="615.5" y="170.1" class="st6" width="2.8" height="6.7"/>
				<rect x="615.5" y="159.8" class="st6" width="2.8" height="6.7"/>
				<rect x="615.5" y="149.5" class="st6" width="2.8" height="6.7"/>
				<rect x="615.5" y="139.2" class="st6" width="2.8" height="6.7"/>
				<rect x="610.2" y="170.1" class="st6" width="2.8" height="6.7"/>
				<rect x="610.2" y="159.8" class="st6" width="2.8" height="6.7"/>
				<rect x="610.2" y="149.5" class="st6" width="2.8" height="6.7"/>
				<rect x="610.2" y="139.2" class="st6" width="2.8" height="6.7"/>
				<rect x="604.8" y="170.1" class="st6" width="2.8" height="6.7"/>
				<rect x="604.8" y="159.8" class="st6" width="2.8" height="6.7"/>
				<rect x="604.8" y="149.5" class="st6" width="2.8" height="6.7"/>
				<rect x="604.8" y="139.2" class="st6" width="2.8" height="6.7"/>
			</g>
			<g>
				<rect x="627.4" y="45.4" class="st12" width="3" height="64.5"/>
				<rect x="616.6" y="79.7" class="st12" width="1.7" height="30.2"/>
			</g>
		</g>
	</g>
	<circle class="st6" cx="100.9" cy="190.7" r="6.6"/>
</g>
</svg>
